# Blender v2.93.0 OBJ File: 'Balloon.blend'
# www.blender.org
mtllib Balloon.mtl
o Sphere
v 0.000000 3.886896 -0.382683
v 0.000000 3.794486 -0.555570
v 0.000000 3.670124 -0.707107
v 0.000000 3.518587 -0.831470
v 0.000000 3.345700 -0.923880
v 0.000000 3.158107 -0.980785
v 0.000000 2.963017 -1.000000
v 0.000000 2.767926 -0.980785
v 0.000000 2.570433 -0.923880
v 0.000000 2.342213 -0.831470
v 0.000000 2.095990 -0.707107
v 0.000000 1.854289 -0.555570
v -0.000000 1.611873 -0.329323
v 0.137950 3.943802 -0.137950
v 0.270598 3.886896 -0.270598
v 0.392848 3.794486 -0.392847
v 0.500000 3.670124 -0.500000
v 0.587938 3.518587 -0.587938
v 0.653282 3.345700 -0.653281
v 0.693520 3.158107 -0.693520
v 0.707107 2.963017 -0.707107
v 0.693520 2.767926 -0.693520
v 0.653282 2.570433 -0.653282
v 0.587938 2.342213 -0.587938
v 0.500000 2.095990 -0.500000
v 0.392848 1.854289 -0.392847
v 0.232866 1.611873 -0.232866
v 0.062750 1.465599 -0.062750
v 0.195090 3.943802 0.000000
v 0.382684 3.886896 0.000000
v 0.555570 3.794486 0.000000
v 0.707107 3.670124 0.000000
v 0.831470 3.518587 0.000000
v 0.923880 3.345700 0.000000
v 0.980785 3.158107 0.000000
v 1.000000 2.963017 0.000000
v 0.980785 2.767926 0.000000
v 0.923880 2.570433 0.000000
v 0.831470 2.342213 0.000000
v 0.707107 2.095990 0.000000
v 0.555570 1.854289 0.000000
v 0.329323 1.611873 0.000000
v 0.088742 1.465599 0.000000
v 0.137950 3.943802 0.137950
v 0.270598 3.886896 0.270598
v 0.392848 3.794486 0.392848
v 0.500000 3.670124 0.500000
v 0.587938 3.518587 0.587938
v 0.653282 3.345700 0.653282
v 0.693520 3.158107 0.693520
v 0.707107 2.963017 0.707107
v 0.693520 2.767926 0.693520
v 0.653282 2.570433 0.653282
v 0.587938 2.342213 0.587938
v 0.500000 2.095990 0.500000
v 0.392847 1.854289 0.392848
v 0.232866 1.611873 0.232867
v 0.062750 1.465599 0.062750
v 0.000000 3.963017 0.000000
v 0.000000 3.943802 0.195090
v 0.000000 3.886896 0.382684
v 0.000000 3.794486 0.555570
v 0.000000 3.670124 0.707107
v 0.000000 3.518587 0.831470
v 0.000000 3.345700 0.923880
v 0.000000 3.158107 0.980785
v 0.000000 2.963017 1.000000
v 0.000000 2.767926 0.980785
v 0.000000 2.570433 0.923880
v 0.000000 2.342213 0.831470
v 0.000000 2.095990 0.707107
v 0.000000 1.854289 0.555570
v 0.000000 1.611873 0.329323
v 0.000000 1.465599 0.088742
v -0.137950 3.943802 0.137950
v -0.270598 3.886896 0.270598
v -0.392847 3.794486 0.392848
v -0.500000 3.670124 0.500000
v -0.587938 3.518587 0.587938
v -0.653281 3.345700 0.653282
v -0.693520 3.158107 0.693520
v -0.707107 2.963017 0.707107
v -0.693520 2.767926 0.693520
v -0.653282 2.570433 0.653282
v -0.587938 2.342213 0.587938
v -0.500000 2.095990 0.500000
v -0.392847 1.854289 0.392848
v -0.232866 1.611873 0.232867
v -0.062750 1.465599 0.062750
v -0.195090 3.943802 0.000000
v -0.382684 3.886896 0.000000
v -0.555570 3.794486 0.000000
v -0.707107 3.670124 0.000000
v -0.831470 3.518587 0.000000
v -0.923879 3.345700 0.000000
v -0.980785 3.158107 0.000000
v -1.000000 2.963017 0.000000
v -0.980785 2.767926 0.000000
v -0.923880 2.570433 0.000000
v -0.831470 2.342213 0.000000
v -0.707107 2.095990 0.000000
v -0.555570 1.854289 0.000000
v -0.329323 1.611873 0.000000
v -0.088742 1.465599 0.000000
v 0.031212 0.083184 -0.031212
v -0.137950 3.943802 -0.137950
v -0.270598 3.886896 -0.270598
v -0.392847 3.794486 -0.392847
v -0.500000 3.670124 -0.500000
v -0.587938 3.518587 -0.587938
v -0.653281 3.345700 -0.653281
v -0.693520 3.158107 -0.693520
v -0.707107 2.963017 -0.707107
v -0.693520 2.767926 -0.693520
v -0.653282 2.570433 -0.653281
v -0.587938 2.342213 -0.587938
v -0.500000 2.095990 -0.500000
v -0.392847 1.854289 -0.392847
v -0.232866 1.611873 -0.232866
v -0.062750 1.465599 -0.062750
v -0.000000 3.943802 -0.195090
v -0.000000 1.465599 -0.088741
v 0.031212 1.054637 -0.031212
v 0.044140 1.054637 0.000000
v 0.031212 1.054637 0.031212
v 0.000000 1.054637 0.044140
v -0.031212 1.054637 0.031212
v -0.044140 1.054637 0.000000
v -0.031212 1.054637 -0.031212
v -0.000000 1.054637 -0.044140
v 0.044140 0.083184 0.000000
v 0.031212 0.083184 0.031212
v 0.000000 0.083184 0.044140
v -0.031212 0.083184 0.031212
v -0.044140 0.083184 0.000000
v -0.000000 0.070527 0.000000
v -0.031212 0.083184 -0.031212
v -0.000000 0.083184 -0.044140
vt 0.593556 0.072734
vt 0.644427 0.113250
vt 0.543569 0.252098
vt 0.511362 0.235615
vt 0.078882 0.285916
vt 0.129806 0.176568
vt 0.214586 0.271421
vt 0.150402 0.329796
vt 0.537260 0.044658
vt 0.478369 0.223687
vt 0.063740 0.398627
vt 0.088293 0.410965
vt 0.477755 0.028898
vt 0.444502 0.215977
vt 0.719232 0.400742
vt 0.659640 0.478807
vt 0.657299 0.396422
vt 0.932962 0.243555
vt 0.956217 0.250425
vt 0.907958 0.392725
vt 0.895438 0.390594
vt 0.417109 0.025163
vt 0.409626 0.212437
vt 0.733357 0.310992
vt 0.634450 0.341178
vt 0.353978 0.033402
vt 0.371915 0.213403
vt 0.718817 0.232114
vt 0.605596 0.302550
vt 0.278776 0.058085
vt 0.325121 0.221201
vt 0.687307 0.166300
vt 0.575025 0.273898
vt 0.199465 0.105444
vt 0.271050 0.239665
vt 0.526515 0.354302
vt 0.501401 0.344527
vt 0.301506 0.337633
vt 0.254165 0.352602
vt 0.477156 0.337143
vt 0.189372 0.383728
vt 0.453194 0.331704
vt 0.102892 0.433915
vt 0.429041 0.328044
vt 0.617878 0.416057
vt 0.837480 0.233980
vt 0.861544 0.233725
vt 0.857330 0.387323
vt 0.844560 0.387286
vt 0.404259 0.326175
vt 0.583115 0.386032
vt 0.377238 0.326314
vt 0.553325 0.367421
vt 0.343008 0.329485
vt 0.422811 0.412415
vt 0.402254 0.411902
vt 0.596503 0.444462
vt 0.558682 0.432704
vt 0.379766 0.412246
vt 0.530004 0.426019
vt 0.350900 0.413908
vt 0.505689 0.421438
vt 0.314986 0.417684
vt 0.483731 0.418053
vt 0.272163 0.424365
vt 0.463040 0.415500
vt 0.207868 0.438857
vt 0.442913 0.413631
vt 0.107827 0.461316
vt 0.813428 0.236041
vt 0.831830 0.387769
vt 0.319869 0.491024
vt 0.277620 0.492392
vt 0.480737 0.484009
vt 0.461153 0.485033
vt 0.211916 0.494127
vt 0.442123 0.485886
vt 0.104552 0.490174
vt 0.423116 0.486654
vt 0.589673 0.475660
vt 0.909367 0.238507
vt 0.882814 0.388979
vt 0.403654 0.487429
vt 0.552335 0.478739
vt 0.382292 0.488353
vt 0.524748 0.481030
vt 0.354664 0.489581
vt 0.501572 0.482718
vt 0.596068 0.506716
vt 0.561599 0.523871
vt 0.409266 0.563625
vt 0.386280 0.565519
vt 0.534958 0.535026
vt 0.356415 0.566778
vt 0.511856 0.543122
vt 0.318704 0.566335
vt 0.490606 0.549331
vt 0.273029 0.562600
vt 0.470285 0.554224
vt 0.203027 0.550917
vt 0.450276 0.558119
vt 0.094109 0.518654
vt 0.430089 0.561209
vt 0.765503 0.245855
vt 0.789491 0.239980
vt 0.819155 0.388758
vt 0.807259 0.390251
vt 0.517182 0.619985
vt 0.494227 0.630773
vt 0.256036 0.642104
vt 0.178430 0.611138
vt 0.470884 0.639451
vt 0.076726 0.544953
vt 0.446773 0.646300
vt 0.616458 0.534581
vt 0.421498 0.651463
vt 0.588526 0.567197
vt 0.393320 0.655084
vt 0.563678 0.589620
vt 0.356600 0.656618
vt 0.540159 0.606580
vt 0.310510 0.653467
vt 0.446988 0.769041
vt 0.406753 0.776089
vt 0.639934 0.604066
vt 0.621254 0.643647
vt 0.354228 0.777798
vt 0.598831 0.675966
vt 0.289414 0.768492
vt 0.573502 0.702862
vt 0.216954 0.741421
vt 0.545603 0.725269
vt 0.128943 0.675474
vt 0.515248 0.743660
vt 0.051868 0.566256
vt 0.482425 0.758241
vt 0.652838 0.553164
vt 0.885532 0.235236
vt 0.870098 0.387888
vt 0.126751 0.878298
vt 0.030194 0.737890
vt 0.665039 0.860782
vt 0.619837 0.905087
vt 0.018955 0.577229
vt 0.566009 0.939558
vt 0.704456 0.548806
vt 0.505241 0.962896
vt 0.727971 0.616771
vt 0.435577 0.974837
vt 0.733357 0.684297
vt 0.344516 0.973291
vt 0.723352 0.748731
vt 0.236133 0.945277
vt 0.700044 0.808127
vt 0.831314 0.700589
vt 0.820547 0.706622
vt 0.849828 0.697354
vt 0.840876 0.697944
vt 0.878269 0.708250
vt 0.868031 0.701700
vt 0.807885 0.720871
vt 0.858709 0.698497
vt 0.889848 0.722662
vt 0.848934 0.727214
vn 0.3431 0.4428 -0.8284
vn 0.2898 -0.6530 -0.6997
vn 0.3685 0.2699 -0.8896
vn 0.2104 -0.8353 -0.5079
vn 0.3811 0.0906 -0.9201
vn 0.0406 0.9944 -0.0979
vn -0.3808 -0.0998 -0.9193
vn 0.3811 -0.0906 -0.9201
vn 0.1194 0.9501 -0.2882
vn 0.3698 -0.2572 -0.8928
vn 0.1916 0.8656 -0.4627
vn 0.3584 -0.3504 -0.8653
vn 0.2541 0.7476 -0.6136
vn 0.3468 -0.4229 -0.8372
vn 0.3049 0.6042 -0.7362
vn 0.3311 -0.5012 -0.7995
vn 0.7362 0.6042 -0.3049
vn 0.7995 -0.5012 -0.3311
vn 0.8284 0.4428 -0.3431
vn 0.6997 -0.6530 -0.2898
vn 0.8896 0.2699 -0.3685
vn 0.5079 -0.8353 -0.2104
vn 0.9201 0.0906 -0.3811
vn 0.0979 0.9944 -0.0406
vn 0.3808 -0.0998 0.9193
vn 0.9201 -0.0906 -0.3811
vn 0.2882 0.9501 -0.1194
vn 0.8928 -0.2572 -0.3698
vn 0.4627 0.8656 -0.1916
vn 0.8653 -0.3504 -0.3584
vn 0.6136 0.7476 -0.2541
vn 0.8372 -0.4229 -0.3468
vn 0.9201 -0.0906 0.3811
vn 0.2882 0.9501 0.1194
vn 0.8928 -0.2572 0.3698
vn 0.4627 0.8656 0.1916
vn 0.8653 -0.3504 0.3584
vn 0.6136 0.7476 0.2541
vn 0.8372 -0.4229 0.3468
vn 0.7362 0.6042 0.3049
vn 0.7995 -0.5012 0.3311
vn 0.8284 0.4428 0.3431
vn 0.6997 -0.6530 0.2898
vn 0.8896 0.2699 0.3685
vn 0.5079 -0.8353 0.2104
vn 0.9201 0.0906 0.3811
vn 0.0979 0.9944 0.0406
vn 0.9193 -0.0998 0.3808
vn 0.3311 -0.5012 0.7995
vn 0.3431 0.4428 0.8284
vn 0.2898 -0.6530 0.6997
vn 0.3685 0.2699 0.8896
vn 0.2104 -0.8353 0.5079
vn 0.3811 0.0906 0.9201
vn 0.0406 0.9944 0.0979
vn -0.9193 -0.0998 -0.3808
vn 0.3811 -0.0906 0.9201
vn 0.1194 0.9501 0.2882
vn 0.3698 -0.2572 0.8928
vn 0.1916 0.8656 0.4627
vn 0.3584 -0.3504 0.8653
vn 0.2541 0.7476 0.6136
vn 0.3468 -0.4229 0.8372
vn 0.3049 0.6042 0.7362
vn -0.1194 0.9501 0.2882
vn -0.3698 -0.2572 0.8928
vn -0.1916 0.8656 0.4627
vn -0.3584 -0.3504 0.8653
vn -0.2541 0.7476 0.6136
vn -0.3468 -0.4229 0.8372
vn -0.3049 0.6042 0.7362
vn -0.3311 -0.5012 0.7995
vn -0.3431 0.4428 0.8284
vn -0.2898 -0.6530 0.6997
vn -0.3685 0.2699 0.8896
vn -0.2104 -0.8353 0.5079
vn -0.3811 0.0906 0.9201
vn -0.0406 0.9944 0.0979
vn 0.3808 -0.0998 -0.9193
vn -0.3811 -0.0906 0.9201
vn -0.8284 0.4428 0.3431
vn -0.6997 -0.6530 0.2898
vn -0.8896 0.2699 0.3685
vn -0.5079 -0.8353 0.2104
vn -0.9201 0.0906 0.3811
vn -0.0979 0.9944 0.0406
vn 0.9193 -0.0998 -0.3808
vn -0.9201 -0.0906 0.3811
vn -0.2882 0.9501 0.1194
vn -0.8928 -0.2572 0.3698
vn -0.4627 0.8656 0.1916
vn -0.8653 -0.3504 0.3584
vn -0.6136 0.7476 0.2541
vn -0.8372 -0.4229 0.3468
vn -0.7362 0.6042 0.3049
vn -0.7995 -0.5012 0.3311
vn -0.8928 -0.2572 -0.3698
vn -0.4627 0.8656 -0.1916
vn -0.8653 -0.3504 -0.3584
vn -0.6136 0.7476 -0.2541
vn -0.8372 -0.4229 -0.3468
vn -0.7362 0.6042 -0.3049
vn -0.7995 -0.5012 -0.3311
vn -0.8284 0.4428 -0.3431
vn -0.6997 -0.6530 -0.2898
vn -0.8896 0.2699 -0.3685
vn -0.5079 -0.8353 -0.2104
vn -0.9201 0.0906 -0.3811
vn -0.0979 0.9944 -0.0406
vn -0.3808 -0.0998 0.9193
vn -0.9201 -0.0906 -0.3811
vn -0.2882 0.9501 -0.1194
vn -0.2898 -0.6530 -0.6997
vn -0.3685 0.2699 -0.8896
vn -0.2104 -0.8353 -0.5079
vn -0.3811 0.0906 -0.9201
vn -0.0406 0.9944 -0.0979
vn -0.9193 -0.0998 0.3808
vn -0.3811 -0.0906 -0.9201
vn -0.1194 0.9501 -0.2882
vn -0.3698 -0.2572 -0.8928
vn -0.1916 0.8656 -0.4627
vn -0.3584 -0.3504 -0.8653
vn -0.2541 0.7476 -0.6136
vn -0.3468 -0.4229 -0.8372
vn -0.3049 0.6042 -0.7362
vn -0.3311 -0.5012 -0.7995
vn -0.3431 0.4428 -0.8284
vn 0.9239 0.0000 -0.3827
vn 0.3827 0.0000 0.9239
vn -0.9239 0.0000 -0.3827
vn 0.3827 0.0000 -0.9239
vn 0.9239 0.0000 0.3827
vn -0.3827 0.0000 0.9239
vn -0.9239 0.0000 0.3827
vn -0.3827 0.0000 -0.9239
vn 0.1134 -0.9551 -0.2739
vn 0.2739 -0.9551 -0.1134
vn 0.2739 -0.9551 0.1134
vn 0.1134 -0.9551 0.2739
vn -0.1134 -0.9551 0.2739
vn -0.2739 -0.9551 0.1134
vn -0.2739 -0.9551 -0.1134
vn -0.1134 -0.9551 -0.2739
usemtl Material
s off
f 5/1/1 4/2/1 18/3/1 19/4/1
f 13/5/2 12/6/2 26/7/2 27/8/2
f 6/9/3 5/1/3 19/4/3 20/10/3
f 122/11/4 13/5/4 27/8/4 28/12/4
f 7/13/5 6/9/5 20/10/5 21/14/5
f 121/15/6 59/16/6 14/17/6
f 120/18/7 122/19/7 130/20/7 129/21/7
f 8/22/8 7/13/8 21/14/8 22/23/8
f 1/24/9 121/15/9 14/17/9 15/25/9
f 9/26/10 8/22/10 22/23/10 23/27/10
f 2/28/11 1/24/11 15/25/11 16/29/11
f 10/30/12 9/26/12 23/27/12 24/31/12
f 3/32/13 2/28/13 16/29/13 17/33/13
f 11/34/14 10/30/14 24/31/14 25/35/14
f 4/2/15 3/32/15 17/33/15 18/3/15
f 12/6/16 11/34/16 25/35/16 26/7/16
f 18/3/17 17/33/17 32/36/17 33/37/17
f 26/7/18 25/35/18 40/38/18 41/39/18
f 19/4/19 18/3/19 33/37/19 34/40/19
f 27/8/20 26/7/20 41/39/20 42/41/20
f 20/10/21 19/4/21 34/40/21 35/42/21
f 28/12/22 27/8/22 42/41/22 43/43/22
f 21/14/23 20/10/23 35/42/23 36/44/23
f 14/17/24 59/16/24 29/45/24
f 58/46/25 74/47/25 126/48/25 125/49/25
f 22/23/26 21/14/26 36/44/26 37/50/26
f 15/25/27 14/17/27 29/45/27 30/51/27
f 23/27/28 22/23/28 37/50/28 38/52/28
f 16/29/29 15/25/29 30/51/29 31/53/29
f 24/31/30 23/27/30 38/52/30 39/54/30
f 17/33/31 16/29/31 31/53/31 32/36/31
f 25/35/32 24/31/32 39/54/32 40/38/32
f 37/50/33 36/44/33 51/55/33 52/56/33
f 30/51/34 29/45/34 44/57/34 45/58/34
f 38/52/35 37/50/35 52/56/35 53/59/35
f 31/53/36 30/51/36 45/58/36 46/60/36
f 39/54/37 38/52/37 53/59/37 54/61/37
f 32/36/38 31/53/38 46/60/38 47/62/38
f 40/38/39 39/54/39 54/61/39 55/63/39
f 33/37/40 32/36/40 47/62/40 48/64/40
f 41/39/41 40/38/41 55/63/41 56/65/41
f 34/40/42 33/37/42 48/64/42 49/66/42
f 42/41/43 41/39/43 56/65/43 57/67/43
f 35/42/44 34/40/44 49/66/44 50/68/44
f 43/43/45 42/41/45 57/67/45 58/69/45
f 36/44/46 35/42/46 50/68/46 51/55/46
f 29/45/47 59/16/47 44/57/47
f 43/70/48 58/46/48 125/49/48 124/71/48
f 56/65/49 55/63/49 71/72/49 72/73/49
f 49/66/50 48/64/50 64/74/50 65/75/50
f 57/67/51 56/65/51 72/73/51 73/76/51
f 50/68/52 49/66/52 65/75/52 66/77/52
f 58/69/53 57/67/53 73/76/53 74/78/53
f 51/55/54 50/68/54 66/77/54 67/79/54
f 44/57/55 59/16/55 60/80/55
f 104/81/56 120/18/56 129/21/56 128/82/56
f 52/56/57 51/55/57 67/79/57 68/83/57
f 45/58/58 44/57/58 60/80/58 61/84/58
f 53/59/59 52/56/59 68/83/59 69/85/59
f 46/60/60 45/58/60 61/84/60 62/86/60
f 54/61/61 53/59/61 69/85/61 70/87/61
f 47/62/62 46/60/62 62/86/62 63/88/62
f 55/63/63 54/61/63 70/87/63 71/72/63
f 48/64/64 47/62/64 63/88/64 64/74/64
f 61/84/65 60/80/65 75/89/65 76/90/65
f 69/85/66 68/83/66 83/91/66 84/92/66
f 62/86/67 61/84/67 76/90/67 77/93/67
f 70/87/68 69/85/68 84/92/68 85/94/68
f 63/88/69 62/86/69 77/93/69 78/95/69
f 71/72/70 70/87/70 85/94/70 86/96/70
f 64/74/71 63/88/71 78/95/71 79/97/71
f 72/73/72 71/72/72 86/96/72 87/98/72
f 65/75/73 64/74/73 79/97/73 80/99/73
f 73/76/74 72/73/74 87/98/74 88/100/74
f 66/77/75 65/75/75 80/99/75 81/101/75
f 74/78/76 73/76/76 88/100/76 89/102/76
f 67/79/77 66/77/77 81/101/77 82/103/77
f 60/80/78 59/16/78 75/89/78
f 122/104/79 28/105/79 123/106/79 130/107/79
f 68/83/80 67/79/80 82/103/80 83/91/80
f 80/99/81 79/97/81 94/108/81 95/109/81
f 88/100/82 87/98/82 102/110/82 103/111/82
f 81/101/83 80/99/83 95/109/83 96/112/83
f 89/102/84 88/100/84 103/111/84 104/113/84
f 82/103/85 81/101/85 96/112/85 97/114/85
f 75/89/86 59/16/86 90/115/86
f 28/105/87 43/70/87 124/71/87 123/106/87
f 83/91/88 82/103/88 97/114/88 98/116/88
f 76/90/89 75/89/89 90/115/89 91/117/89
f 84/92/90 83/91/90 98/116/90 99/118/90
f 77/93/91 76/90/91 91/117/91 92/119/91
f 85/94/92 84/92/92 99/118/92 100/120/92
f 78/95/93 77/93/93 92/119/93 93/121/93
f 86/96/94 85/94/94 100/120/94 101/122/94
f 79/97/95 78/95/95 93/121/95 94/108/95
f 87/98/96 86/96/96 101/122/96 102/110/96
f 99/118/97 98/116/97 114/123/97 115/124/97
f 92/119/98 91/117/98 107/125/98 108/126/98
f 100/120/99 99/118/99 115/124/99 116/127/99
f 93/121/100 92/119/100 108/126/100 109/128/100
f 101/122/101 100/120/101 116/127/101 117/129/101
f 94/108/102 93/121/102 109/128/102 110/130/102
f 102/110/103 101/122/103 117/129/103 118/131/103
f 95/109/104 94/108/104 110/130/104 111/132/104
f 103/111/105 102/110/105 118/131/105 119/133/105
f 96/112/106 95/109/106 111/132/106 112/134/106
f 104/113/107 103/111/107 119/133/107 120/135/107
f 97/114/108 96/112/108 112/134/108 113/136/108
f 90/115/109 59/16/109 106/137/109
f 74/47/110 89/138/110 127/139/110 126/48/110
f 98/116/111 97/114/111 113/136/111 114/123/111
f 91/117/112 90/115/112 106/137/112 107/125/112
f 119/133/113 118/131/113 12/140/113 13/141/113
f 112/134/114 111/132/114 5/142/114 6/143/114
f 120/135/115 119/133/115 13/141/115 122/144/115
f 113/136/116 112/134/116 6/143/116 7/145/116
f 106/137/117 59/16/117 121/146/117
f 89/138/118 104/81/118 128/82/118 127/139/118
f 114/123/119 113/136/119 7/145/119 8/147/119
f 107/125/120 106/137/120 121/146/120 1/148/120
f 115/124/121 114/123/121 8/147/121 9/149/121
f 108/126/122 107/125/122 1/148/122 2/150/122
f 116/127/123 115/124/123 9/149/123 10/151/123
f 109/128/124 108/126/124 2/150/124 3/152/124
f 117/129/125 116/127/125 10/151/125 11/153/125
f 110/130/126 109/128/126 3/152/126 4/154/126
f 118/131/127 117/129/127 11/153/127 12/140/127
f 111/132/128 110/130/128 4/154/128 5/142/128
f 123/106/129 124/71/129 131/155/129 105/156/129
f 125/49/130 126/48/130 133/157/130 132/158/130
f 128/82/131 129/21/131 137/159/131 135/160/131
f 130/107/132 123/106/132 105/156/132 138/161/132
f 124/71/133 125/49/133 132/158/133 131/155/133
f 126/48/134 127/139/134 134/162/134 133/157/134
f 127/139/135 128/82/135 135/160/135 134/162/135
f 129/21/136 130/20/136 138/163/136 137/159/136
f 136/164/137 138/161/137 105/156/137
f 136/164/138 105/156/138 131/155/138
f 136/164/139 131/155/139 132/158/139
f 136/164/140 132/158/140 133/157/140
f 136/164/141 133/157/141 134/162/141
f 136/164/142 134/162/142 135/160/142
f 136/164/143 135/160/143 137/159/143
f 136/164/144 137/159/144 138/163/144
