# Blender v2.93.0 OBJ File: 'Campfire.blend'
# www.blender.org
mtllib Campfire.mtl
o FirePit_Circle
v 0.000000 0.000000 0.000000
v 0.000000 0.006576 -2.768672
v -1.286666 0.006576 -2.451538
v -2.278573 0.006576 -1.572785
v -2.748486 0.006576 -0.333727
v -2.588754 0.006576 0.981785
v -1.835969 0.006576 2.072381
v -0.662587 0.006576 2.688220
v 0.662587 0.006576 2.688220
v 1.835969 0.006576 2.072381
v 2.588753 0.006576 0.981785
v 2.748486 0.006576 -0.333727
v 2.278573 0.006576 -1.572785
v 1.286666 0.006576 -2.451538
v 0.000000 0.203079 0.000000
v 0.000000 0.203079 -2.768672
v -1.286666 0.203079 -2.451538
v -2.278573 0.203079 -1.572785
v -2.748486 0.203079 -0.333727
v -2.588754 0.203079 0.981785
v -1.835969 0.203079 2.072381
v -0.662587 0.203079 2.688220
v 0.662587 0.203079 2.688220
v 1.835969 0.203079 2.072381
v 2.588753 0.203079 0.981785
v 2.748486 0.203079 -0.333727
v 2.278573 0.203079 -1.572785
v 1.286666 0.203079 -2.451538
v 0.576646 0.203079 2.339545
v 1.985337 0.203079 -1.370379
v 1.599694 0.203079 1.805681
v -1.599694 0.203079 1.805681
v -1.985337 0.203079 -1.370379
v 1.121082 0.203079 -2.136043
v 2.255600 0.203079 0.855437
v -0.577317 0.203079 2.342266
v -2.394776 0.203079 -0.290778
v -1.121082 0.203079 -2.136043
v 2.394776 0.203079 -0.290779
v -2.255600 0.203079 0.855436
v 0.000000 0.203079 -2.412364
v 0.000000 0.532815 -2.768672
v -1.286666 0.532815 -2.451538
v -2.278573 0.532815 -1.572785
v -2.748486 0.532815 -0.333727
v -2.588754 0.532815 0.981785
v -1.835969 0.532815 2.072381
v -0.662587 0.532815 2.688220
v 0.662587 0.532815 2.688220
v 1.835969 0.532815 2.072381
v 2.588753 0.532815 0.981785
v 2.748486 0.532815 -0.333727
v 2.278573 0.532815 -1.572785
v 1.286666 0.532815 -2.451538
v 0.576646 0.532815 2.339545
v 1.985337 0.532815 -1.370379
v 1.599694 0.532815 1.805681
v -1.599694 0.532815 1.805681
v -1.985337 0.532815 -1.370379
v 1.121082 0.532815 -2.136043
v 2.255600 0.532815 0.855437
v -0.577317 0.532815 2.342266
v -2.394776 0.532815 -0.290778
v -1.121082 0.532815 -2.136043
v 2.394776 0.532815 -0.290779
v -2.255600 0.532815 0.855436
v 0.000000 0.532815 -2.412364
v -1.618886 0.429589 -1.526732
v -0.337140 1.648293 -0.592983
v -0.984571 -0.126669 -1.671435
v 0.297175 1.092035 -0.737685
v -1.691836 -0.039452 -0.814414
v -0.410090 1.179253 0.119335
v -1.438287 0.667878 0.589639
v 0.345267 0.720185 -0.313800
v -1.659369 -0.008601 0.114016
v 0.124185 0.043706 -0.789422
v -1.157638 0.046974 1.107742
v 0.625915 0.099280 0.204304
v 0.744127 0.693036 1.403779
v -0.087004 1.243755 -0.329982
v 0.245765 -0.002688 1.421692
v -0.585366 0.548031 -0.312070
v 1.259452 0.152768 0.985129
v 0.428321 0.703487 -0.748632
v 1.562176 0.328176 -0.981669
v 0.444292 1.780351 -0.180716
v 1.271590 -0.220518 -0.392422
v 0.153707 1.231656 0.408531
v 0.877899 0.034136 -1.403596
v -0.239985 1.486310 -0.602643
vt 0.285397 0.172116
vt 0.426942 0.143913
vt 0.423836 0.212923
vt 0.397623 0.081364
vt 0.342593 0.039605
vt 0.274461 0.028203
vt 0.208834 0.049769
vt 0.160747 0.099364
vt 0.141215 0.165625
vt 0.154714 0.233373
vt 0.198151 0.287088
vt 0.261575 0.314464
vt 0.330456 0.309229
vt 0.389015 0.272584
vt 0.156628 0.470426
vt 0.265248 0.533831
vt 0.223341 0.577047
vt 0.166150 0.595837
vt 0.106778 0.585897
vt 0.058826 0.549504
vt 0.033280 0.494996
vt 0.035991 0.434858
vt 0.066443 0.382971
vt 0.117370 0.350939
vt 0.177395 0.346381
vt 0.232663 0.370241
vt 0.270512 0.417052
vt 0.282272 0.476090
vt 0.560995 0.576613
vt 0.587113 0.638550
vt 0.577780 0.641793
vt 0.552136 0.581047
vt 0.437629 0.417201
vt 0.485656 0.464976
vt 0.478192 0.471568
vt 0.431062 0.424721
vt 0.615156 0.836331
vt 0.608430 0.905516
vt 0.598117 0.903758
vt 0.605128 0.835877
vt 0.324811 0.341826
vt 0.383699 0.375928
vt 0.378140 0.384250
vt 0.320287 0.350843
vt 0.604963 0.703178
vt 0.595312 0.705184
vt 0.591556 0.976385
vt 0.581064 0.973875
vt 0.526998 0.518421
vt 0.518765 0.523978
vt 0.614303 0.769417
vt 0.604483 0.770169
vt 0.257518 0.323855
vt 0.194091 0.296493
vt 0.465746 0.482804
vt 0.420145 0.437504
vt 0.476004 0.552456
vt 0.439370 0.505422
vt 0.452088 0.494326
vt 0.490012 0.543122
vt 0.562124 0.647427
vt 0.537302 0.588678
vt 0.313065 0.365647
vt 0.250708 0.339660
vt 0.396855 0.463410
vt 0.349138 0.427157
vt 0.358632 0.413089
vt 0.408060 0.450730
vt 0.588097 0.835157
vt 0.587970 0.771603
vt 0.296954 0.397331
vt 0.241711 0.374279
vt 0.247784 0.359329
vt 0.304562 0.382168
vt 0.505007 0.533487
vt 0.187276 0.312276
vt 0.528179 0.955582
vt 0.543869 0.893393
vt 0.561667 0.897151
vt 0.545938 0.960063
vt 0.184209 0.330598
vt 0.239477 0.354457
vt 0.579099 0.708739
vt 0.521229 0.596273
vt 0.561706 0.711943
vt 0.545249 0.652867
vt 0.571299 0.834002
vt 0.570380 0.772552
vt 0.580747 0.900827
vt 0.562317 0.969094
vt 0.368934 0.398350
vt 0.529397 0.658269
vt 0.506170 0.603698
vt 0.553709 0.773648
vt 0.545330 0.715237
vt 0.554104 0.832525
vt 0.929001 0.271766
vt 0.730321 0.271766
vt 0.730321 0.186732
vt 0.929001 0.186732
vt 0.805300 0.104670
vt 0.861370 0.119919
vt 0.747162 0.055717
vt 0.923210 0.062475
vt 0.922800 0.502147
vt 0.724120 0.502147
vt 0.724120 0.417113
vt 0.922800 0.417113
vt 0.799099 0.335051
vt 0.855169 0.350300
vt 0.740962 0.286098
vt 0.917009 0.292856
vt 0.941720 0.727940
vt 0.941720 0.926621
vt 0.856685 0.926621
vt 0.856685 0.727940
vt 0.774623 0.851642
vt 0.789873 0.795572
vt 0.725670 0.909779
vt 0.732429 0.733732
vt 0.727221 0.698317
vt 0.733979 0.522270
vt 0.791423 0.584110
vt 0.776173 0.640180
vt 0.858236 0.516479
vt 0.858236 0.715159
vt 0.943270 0.516479
vt 0.943270 0.715159
vn -0.0006 -1.0000 -0.0024
vn -0.0016 -1.0000 -0.0018
vn -0.0023 -1.0000 -0.0009
vn -0.0024 -1.0000 0.0003
vn -0.0020 -1.0000 0.0014
vn -0.0011 -1.0000 0.0022
vn 0.0000 -1.0000 0.0024
vn 0.0011 -1.0000 0.0022
vn 0.0020 -1.0000 0.0014
vn 0.0024 -1.0000 0.0003
vn 0.0023 -1.0000 -0.0009
vn 0.0016 -1.0000 -0.0018
vn 0.0006 -1.0000 -0.0024
vn 0.0000 1.0000 0.0000
vn -0.9927 0.0000 0.1205
vn -0.2393 0.0000 -0.9709
vn 0.4647 0.0000 0.8855
vn 0.6631 0.0000 -0.7485
vn -0.8230 0.0000 0.5681
vn 0.8230 0.0000 0.5681
vn 0.2393 0.0000 -0.9709
vn -0.6631 0.0000 -0.7485
vn -0.4647 0.0000 0.8855
vn 0.9927 0.0000 0.1205
vn -0.9350 0.0000 -0.3546
vn 0.0000 0.0000 1.0000
vn 0.9350 0.0000 -0.3546
vn 0.6631 0.0000 0.7485
vn -0.2393 0.0000 0.9709
vn -0.9350 0.0000 0.3546
vn -0.6631 0.0000 0.7485
vn -0.8230 0.0000 -0.5681
vn -0.9927 0.0000 -0.1205
vn 0.2393 0.0000 0.9709
vn 0.9927 0.0000 -0.1205
vn 0.9350 0.0000 0.3546
vn 0.4647 0.0000 -0.8855
vn 0.8230 0.0000 -0.5681
vn -0.4626 0.0000 -0.8865
vn -0.0024 0.0000 -1.0000
vn 0.2004 0.4543 -0.8680
vn 0.4320 -0.7890 0.4368
vn 0.6409 0.6094 0.4669
vn -0.7629 0.5731 0.2992
vn -0.6409 -0.6094 -0.4669
vn -0.3715 0.6122 -0.6980
vn 0.0458 -0.9984 0.0327
vn 0.8918 0.0262 -0.4517
vn 0.3118 0.6879 0.6554
vn -0.8918 -0.0262 0.4517
vn -0.6988 0.5134 0.4981
vn 0.0131 -0.9512 -0.3084
vn -0.4156 0.2754 -0.8669
vn 0.6818 0.7251 -0.0965
vn 0.4156 -0.2754 0.8669
vn 0.7565 0.2488 0.6048
vn -0.7502 -0.6485 0.1288
vn -0.5589 0.7261 0.4005
vn 0.2203 0.5956 -0.7724
vn 0.5589 -0.7261 -0.4005
usemtl Material
s off
f 1/1/1 3/2/1 2/3/1
f 1/1/2 4/4/2 3/2/2
f 1/1/3 5/5/3 4/4/3
f 1/1/4 6/6/4 5/5/4
f 1/1/5 7/7/5 6/6/5
f 1/1/6 8/8/6 7/7/6
f 1/1/7 9/9/7 8/8/7
f 1/1/8 10/10/8 9/9/8
f 1/1/9 11/11/9 10/10/9
f 1/1/10 12/12/10 11/11/10
f 1/1/11 13/13/11 12/12/11
f 1/1/12 14/14/12 13/13/12
f 1/1/13 2/3/13 14/14/13
f 15/15/14 41/16/14 38/17/14
f 15/15/14 38/17/14 33/18/14
f 15/15/14 33/18/14 37/19/14
f 15/15/14 37/19/14 40/20/14
f 15/15/14 40/20/14 32/21/14
f 15/15/14 32/21/14 36/22/14
f 15/15/14 36/22/14 29/23/14
f 15/15/14 29/23/14 31/24/14
f 15/15/14 31/24/14 35/25/14
f 15/15/14 35/25/14 39/26/14
f 15/15/14 39/26/14 30/27/14
f 15/15/14 30/27/14 34/28/14
f 15/15/14 34/28/14 41/16/14
f 5/29/15 6/30/15 20/31/15 19/32/15
f 2/33/16 3/34/16 17/35/16 16/36/16
f 9/37/17 10/38/17 24/39/17 23/40/17
f 13/41/18 14/42/18 28/43/18 27/44/18
f 6/30/19 7/45/19 21/46/19 20/31/19
f 10/38/20 11/47/20 25/48/20 24/39/20
f 14/42/21 2/33/21 16/36/21 28/43/21
f 3/34/22 4/49/22 18/50/22 17/35/22
f 7/45/23 8/51/23 22/52/23 21/46/23
f 11/11/24 12/12/24 26/53/24 25/54/24
f 4/49/25 5/29/25 19/32/25 18/50/25
f 8/51/26 9/37/26 23/40/26 22/52/26
f 12/12/27 13/41/27 27/44/27 26/53/27
f 16/36/16 17/35/16 43/55/16 42/56/16
f 33/57/28 38/58/28 64/59/28 59/60/28
f 19/32/15 20/31/15 46/61/15 45/62/15
f 26/53/27 27/44/27 53/63/27 52/64/27
f 41/65/29 34/66/29 60/67/29 67/68/29
f 22/52/26 23/40/26 49/69/26 48/70/26
f 30/71/30 39/72/30 65/73/30 56/74/30
f 18/50/25 19/32/25 45/62/25 44/75/25
f 34/66/31 30/71/31 56/74/31 60/67/31
f 25/54/24 26/53/24 52/64/24 51/76/24
f 35/77/32 31/78/32 57/79/32 61/80/32
f 39/26/33 35/25/33 61/81/33 65/82/33
f 21/46/23 22/52/23 48/70/23 47/83/23
f 64/59/14 67/68/14 42/56/14 43/55/14
f 63/84/14 59/60/14 44/75/14 45/62/14
f 58/85/14 66/86/14 46/61/14 47/83/14
f 55/87/14 62/88/14 48/70/14 49/69/14
f 61/80/14 57/79/14 50/89/14 51/90/14
f 56/74/14 65/73/14 52/64/14 53/63/14
f 67/68/14 60/67/14 54/91/14 42/56/14
f 59/60/14 64/59/14 43/55/14 44/75/14
f 66/86/14 63/84/14 45/62/14 46/61/14
f 62/88/14 58/85/14 47/83/14 48/70/14
f 57/79/14 55/87/14 49/69/14 50/89/14
f 65/82/14 61/81/14 51/76/14 52/64/14
f 60/67/14 56/74/14 53/63/14 54/91/14
f 38/58/34 41/65/34 67/68/34 64/59/34
f 23/40/17 24/39/17 50/89/17 49/69/17
f 40/92/35 37/93/35 63/84/35 66/86/35
f 27/44/18 28/43/18 54/91/18 53/63/18
f 37/93/36 33/57/36 59/60/36 63/84/36
f 20/31/19 21/46/19 47/83/19 46/61/19
f 36/94/37 32/95/37 58/85/37 62/88/37
f 32/95/38 40/92/38 66/86/38 58/85/38
f 24/39/20 25/48/20 51/90/20 50/89/20
f 31/78/39 29/96/39 55/87/39 57/79/39
f 28/43/21 16/36/21 42/56/21 54/91/21
f 17/35/22 18/50/22 44/75/22 43/55/22
f 29/96/40 36/94/40 62/88/40 55/87/40
f 68/97/41 69/98/41 71/99/41 70/100/41
f 70/100/42 71/99/42 73/101/42 72/102/42
f 71/99/43 69/103/43 73/101/43
f 72/102/44 73/101/44 69/103/44 68/104/44
f 68/104/45 70/100/45 72/102/45
f 74/105/46 75/106/46 77/107/46 76/108/46
f 76/108/47 77/107/47 79/109/47 78/110/47
f 77/107/48 75/111/48 79/109/48
f 78/110/49 79/109/49 75/111/49 74/112/49
f 74/112/50 76/108/50 78/110/50
f 80/113/51 81/114/51 83/115/51 82/116/51
f 82/116/52 83/115/52 85/117/52 84/118/52
f 83/115/53 81/119/53 85/117/53
f 84/118/54 85/117/54 81/119/54 80/120/54
f 80/120/55 82/116/55 84/118/55
f 86/121/56 87/122/56 89/123/56 88/124/56
f 88/124/57 89/123/57 91/125/57 90/126/57
f 89/123/58 87/122/58 91/125/58
f 90/126/59 91/125/59 87/127/59 86/128/59
f 86/121/60 88/124/60 90/126/60
