# Blender v2.93.0 OBJ File: 'Stool.blend'
# www.blender.org
mtllib Stool.mtl
o Circle
v 0.000000 0.000000 0.000000
v 0.000000 0.000000 -1.000000
v -0.707107 0.000000 -0.707107
v -1.000000 0.000000 0.000000
v -0.707107 0.000000 0.707107
v 0.000000 0.000000 1.000000
v 0.707107 0.000000 0.707107
v 1.000000 0.000000 -0.000000
v 0.707107 0.000000 -0.707107
v 0.000000 2.000000 -1.000000
v -0.707107 2.000000 -0.707107
v -1.000000 2.000000 0.000000
v -0.707107 2.000000 0.707107
v 0.000000 2.000000 1.000000
v 0.707107 2.000000 0.707107
v 1.000000 2.000000 -0.000000
v 0.707107 2.000000 -0.707107
v 0.000000 2.273496 -1.357496
v -0.959894 2.273496 -0.959894
v -1.357495 2.273496 0.000000
v -0.959894 2.273496 0.959894
v 0.000000 2.273496 1.357496
v 0.959894 2.273496 0.959894
v 1.357496 2.273496 -0.000000
v 0.959894 2.273496 -0.959894
v 0.000000 2.578836 -0.000000
v 0.000000 2.578836 -1.436400
v -1.015688 2.578836 -1.015688
v -1.436400 2.578836 0.000000
v -1.015688 2.578836 1.015688
v 0.000000 2.578836 1.436400
v 1.015688 2.578836 1.015688
v 1.436400 2.578836 -0.000000
v 1.015688 2.578836 -1.015688
vt 0.869593 0.511636
vt 0.667891 0.439086
vt 0.694718 0.375615
vt 0.657537 0.500000
vt 0.660930 0.562591
vt 0.681367 0.631981
vt 0.733701 0.716755
vt 0.882193 0.835061
vt 0.750077 0.304836
vt 0.882193 0.217347
vt 0.475508 0.200218
vt 0.474979 0.317035
vt 0.425669 0.316150
vt 0.412434 0.199800
vt 0.472698 0.410491
vt 0.468950 0.494221
vt 0.427835 0.489360
vt 0.430031 0.407741
vt 0.463554 0.578997
vt 0.419248 0.571230
vt 0.455510 0.676432
vt 0.401704 0.664085
vt 0.443568 0.804228
vt 0.367862 0.786018
vt 0.433184 0.981930
vt 0.306505 0.999906
vt 0.491041 0.036502
vt 0.395291 0.000094
vt 0.372261 0.208795
vt 0.317821 0.001689
vt 0.394605 0.321171
vt 0.402127 0.488457
vt 0.403222 0.409506
vt 0.391881 0.567368
vt 0.369066 0.655828
vt 0.322979 0.770824
vt 0.219992 0.976784
vt 0.000094 0.456299
vn 0.0000 -1.0000 0.0000
vn 0.2441 -0.7702 -0.5892
vn -0.5892 -0.7702 -0.2441
vn -0.5892 -0.7702 0.2441
vn -0.2441 -0.7702 0.5892
vn 0.2441 -0.7702 0.5892
vn -0.2441 -0.7702 -0.5892
vn 0.5892 -0.7702 0.2441
vn 0.5892 -0.7702 -0.2441
vn -0.3827 0.0000 0.9239
vn -0.9239 0.0000 0.3827
vn -0.9239 0.0000 -0.3827
vn 0.3827 0.0000 -0.9239
vn 0.9239 0.0000 -0.3827
vn 0.9239 0.0000 0.3827
vn -0.3827 0.0000 -0.9239
vn 0.3827 0.0000 0.9239
vn 0.8986 -0.2322 -0.3722
vn 0.3722 -0.2322 -0.8986
vn -0.8986 -0.2322 -0.3722
vn -0.8986 -0.2322 0.3722
vn -0.3722 -0.2322 0.8986
vn 0.3722 -0.2322 0.8986
vn -0.3722 -0.2322 -0.8986
vn 0.8986 -0.2322 0.3722
vn 0.0000 1.0000 0.0000
usemtl Material
s off
f 1/1/1 3/2/1 2/3/1
f 1/1/1 4/4/1 3/2/1
f 1/1/1 5/5/1 4/4/1
f 1/1/1 6/6/1 5/5/1
f 1/1/1 7/7/1 6/6/1
f 1/1/1 8/8/1 7/7/1
f 1/1/1 9/9/1 8/10/1
f 1/1/1 2/3/1 9/9/1
f 17/11/2 10/12/2 18/13/2 25/14/2
f 11/15/3 12/16/3 20/17/3 19/18/3
f 12/16/4 13/19/4 21/20/4 20/17/4
f 13/19/5 14/21/5 22/22/5 21/20/5
f 14/21/6 15/23/6 23/24/6 22/22/6
f 10/12/7 11/15/7 19/18/7 18/13/7
f 15/23/8 16/25/8 24/26/8 23/24/8
f 16/27/9 17/11/9 25/14/9 24/28/9
f 5/5/10 6/6/10 14/21/10 13/19/10
f 4/4/11 5/5/11 13/19/11 12/16/11
f 3/2/12 4/4/12 12/16/12 11/15/12
f 9/9/13 2/3/13 10/12/13 17/11/13
f 8/10/14 9/9/14 17/11/14 16/27/14
f 7/7/15 8/8/15 16/25/15 15/23/15
f 2/3/16 3/2/16 11/15/16 10/12/16
f 6/6/17 7/7/17 15/23/17 14/21/17
f 24/28/18 25/14/18 34/29/18 33/30/18
f 25/14/19 18/13/19 27/31/19 34/29/19
f 19/18/20 20/17/20 29/32/20 28/33/20
f 20/17/21 21/20/21 30/34/21 29/32/21
f 21/20/22 22/22/22 31/35/22 30/34/22
f 22/22/23 23/24/23 32/36/23 31/35/23
f 18/13/24 19/18/24 28/33/24 27/31/24
f 23/24/25 24/26/25 33/37/25 32/36/25
f 26/38/26 27/31/26 28/33/26
f 26/38/26 28/33/26 29/32/26
f 26/38/26 29/32/26 30/34/26
f 26/38/26 30/34/26 31/35/26
f 26/38/26 31/35/26 32/36/26
f 26/38/26 32/36/26 33/37/26
f 26/38/26 33/30/26 34/29/26
f 26/38/26 34/29/26 27/31/26
